<svg width="52" height="45" viewBox="0 0 52 45" fill="none" xmlns="http://www.w3.org/2000/svg">
<g clip-path="url(#clip0_6015_326)">
<path d="M48.8014 38.9478C48.2703 34.9706 46.8519 28.2785 42.4568 21.3213C38.9314 15.7417 35.1316 9.72398 28.9505 8.46742C18.9462 6.43847 11.5393 18.6813 5.69669 15.8858C3.66549 14.9116 1.33077 11.8855 1.64596 1.62548" stroke="white" stroke-width="1.5" stroke-miterlimit="10"/>
<path d="M49.607 45L44.9434 36.9303L48.7431 38.4924L52 36.0138L49.607 45Z" fill="white"/>
<path d="M-0.000110645 1.57354C0.0290733 0.67435 0.787857 -0.0288665 1.69256 -4.625e-05C2.6031 0.028774 3.31519 0.778102 3.286 1.67153C3.25682 2.57072 2.49804 3.27394 1.59333 3.24512C0.682794 3.2163 -0.0292946 2.46697 -0.000110645 1.57354Z" fill="white"/>
</g>
<defs>
<clipPath id="clip0_6015_326">
<rect width="52" height="45" fill="white" transform="matrix(1 0 0 -1 0 45)"/>
</clipPath>
</defs>
</svg>
