<?xml version="1.0" encoding="UTF-8"?>
<svg id="Capa_1" data-name="Capa 1" xmlns="http://www.w3.org/2000/svg" viewBox="0 0 32 32">
  <defs>
    <style>
      .cls-1 {
        fill: #165efe;
      }

      .cls-2 {
        fill: #fff;
      }
    </style>
  </defs>
  <path class="cls-2" d="M23.79,23.81v-2.76h-5.94c-.95,0-1.51-.64-1.51-1.46,0-.29.05-.5.11-.66l4-11.24c.24-.64.61-1.17,1.56-1.17,1.3,0,1.96.9,1.54,2.15l-3.23,9.38h3.47v-2.97c0-1.03.69-1.72,1.7-1.72s1.7.69,1.7,1.72v2.97h1.22c.82,0,1.51.66,1.51,1.48,0,.87-.69,1.51-1.51,1.51h-1.22v2.76c0,1.03-.72,1.7-1.7,1.7s-1.7-.66-1.7-1.7Z"/>
  <path class="cls-1" d="M9.07,22.11c0-1.71-1.39-3.1-3.1-3.1h-.75c-1.71,0-3.1-1.39-3.1-3.1s1.39-3.1,3.1-3.1h.03c1.71,0,3.82-1.39,3.82-3.1v-.4c0-1.71,1.39-3.1,3.1-3.1s3.1,1.39,3.1,3.1-1.36,3.07-3.07,3.07h-.03c-2.08,0-3.77,1.68-3.77,3.76s1.5,3.62,3.58,3.62h.18c1.71,0,3.1,1.39,3.1,3.1s-1.39,3.1-3.1,3.1-3.1-1.39-3.1-3.1v-.75Z"/>
  <path class="cls-2" d="M5.43,21.56c-1.09,0-2.11-.32-2.97-.86-.14-.09-.33.01-.33.18v3.81c0,1.01,1.17,1.27,2.17,1.27s2.17-.25,2.17-1.27v-2.97c0-.13-.12-.23-.25-.21-.26.04-.52.06-.79.06Z"/>
  <path class="cls-2" d="M6.47,7.31c0-1.02-1.14-1.27-2.17-1.27s-2.17.25-2.17,1.27l-.04,3.83c0,.17.19.28.33.18.87-.54,1.92-.86,3.01-.86.26,0,.52.02.77.05.13.02.25-.08.25-.21l.02-2.99Z"/>
</svg>