<?xml version="1.0" encoding="UTF-8"?>
<svg id="Capa_1" data-name="Capa 1" xmlns="http://www.w3.org/2000/svg" viewBox="0 0 800 800">
  <defs>
    <style>
      .cls-1 {
        fill: #165efe;
      }

      .cls-2 {
        stroke: #fff;
        stroke-miterlimit: 10;
      }

      .cls-2, .cls-3 {
        fill: #fff;
      }
    </style>
  </defs>
  <g>
    <path class="cls-3" d="M324.96,505.58v-35.73h-76.96c-12.37,0-19.58-8.25-19.58-18.9,0-3.78.69-6.53,1.38-8.59l51.88-145.67c3.09-8.24,7.9-15.12,20.27-15.12,16.83,0,25.42,11.68,19.93,27.83l-41.92,121.62h45.01v-38.48c0-13.4,8.93-22.33,21.99-22.33s21.99,8.93,21.99,22.33v38.48h15.81c10.65,0,19.58,8.59,19.58,19.24,0,11.34-8.93,19.58-19.58,19.58h-15.81v35.73c0,13.4-9.28,21.99-21.99,21.99s-21.99-8.59-21.99-21.99Z"/>
    <path class="cls-1" d="M447.95,516.24v-141.55h-19.24c-5.84,0-10.31-4.12-10.31-9.96,0-6.18,4.47-9.96,10.31-9.96h19.24v-34.36c0-34.01,14.43-53.94,47.07-53.94,6.53,0,13.05.69,17.86,2.41,4.81,1.72,7.22,4.12,7.22,8.93,0,5.84-4.47,10.65-11.34,9.28-4.12-1.03-7.56-1.72-11.68-1.72-19.58,0-26.45,11.34-26.45,34.36v35.04h36.42c5.84,0,9.96,3.78,9.96,9.96,0,5.84-4.12,9.96-9.96,9.96h-36.42v141.55c0,6.53-4.81,11.34-11.34,11.34-6.87,0-11.34-4.81-11.34-11.34ZM546.21,299.1c0-9.28,6.53-15.46,15.8-15.46s15.46,6.18,15.46,15.46-6.53,15.81-15.46,15.81-15.8-6.53-15.8-15.81ZM550.33,516.24v-151.17c0-6.87,4.81-11.34,11.34-11.34,6.87,0,11.34,4.47,11.34,11.34v151.17c0,6.53-4.47,11.34-11.34,11.34s-11.34-4.81-11.34-11.34Z"/>
    <path class="cls-1" d="M619.72,518.3c0-2.75.68-4.81,2.4-7.21l53.25-74.56-49.47-69.05c-1.72-2.41-2.41-4.81-2.41-7.21,0-5.15,4.12-9.62,10.31-9.62,5.15,0,7.56,2.75,9.62,5.84l45.01,63.9,45.01-64.24c2.41-3.09,4.47-5.5,8.93-5.5,6.18,0,10.65,4.47,10.65,9.62,0,2.06-.69,4.47-2.41,6.87l-49.81,69.4,53.25,74.56c1.72,2.4,2.41,4.81,2.41,6.87,0,5.5-4.12,9.96-10.65,9.96-3.78,0-6.19-2.06-8.25-4.81l-49.47-70.43-49.47,70.78c-1.72,2.41-4.12,4.47-8.59,4.47-6.18,0-10.31-4.12-10.31-9.62Z"/>
    <path class="cls-1" d="M134.09,483.66c0-22.19-17.98-40.17-40.17-40.17h-9.7c-22.18,0-40.18-17.98-40.18-40.18s18-40.16,40.18-40.16h.33c22.19,0,49.54-17.99,49.54-40.17v-5.25c0-22.2,17.99-40.18,40.17-40.18s40.18,17.98,40.18,40.18-17.58,39.74-39.76,39.74l-.42-.05c-26.97,0-48.82,21.85-48.82,48.82s19.49,46.94,46.46,46.94h2.36c22.18,0,40.18,17.98,40.18,40.18s-18,40.16-40.18,40.16-40.16-17.98-40.16-40.16v-9.71Z"/>
    <path class="cls-3" d="M86.86,476.54c-14.18,0-27.41-4.11-38.55-11.19-1.87-1.19-4.29.15-4.29,2.36v49.39c0,13.15,15.18,16.44,28.19,16.44s28.19-3.29,28.19-16.44v-38.53c0-1.74-1.55-3.02-3.27-2.77-3.35.48-6.78.74-10.27.74Z"/>
    <path class="cls-3" d="M100.4,291.74c0-13.18-14.75-16.47-28.19-16.47s-28.19,3.29-28.19,16.47l-.47,49.62c-.02,2.23,2.42,3.57,4.31,2.38,11.23-7.05,24.86-11.14,39.01-11.14,3.39,0,6.72.24,9.98.7,1.71.24,3.25-1.03,3.26-2.75l.3-38.82Z"/>
  </g>
  <path class="cls-2" d="M546.21,299.1c0-9.28,6.53-15.46,15.8-15.46s15.46,6.18,15.46,15.46-6.53,15.81-15.46,15.81-15.8-6.53-15.8-15.81Z"/>
</svg>