<?xml version="1.0" encoding="UTF-8"?>
<svg id="Capa_1" data-name="Capa 1" xmlns="http://www.w3.org/2000/svg" viewBox="0 0 1280 514.14">
  <defs>
    <style>
      .cls-1 {
        fill: #ffffff;
      }
    </style>
  </defs>
  <path class="cls-1" d="M565.83,265.01h-139.35c-.55,0-1-.45-1-1v-101.42c0-.82.93-1.3,1.59-.81l139.35,101.42c.79.57.38,1.82-.59,1.82Z"/>
  <path class="cls-1" d="M877.67,162.57v101.44c0,.55-.45,1-1,1h-267.03c-1.11,0-1.39-1.54-.36-1.93l267.03-101.44c.65-.25,1.36.23,1.36.93Z"/>
  <path class="cls-1" d="M440.98,393.28c-8.58-4.61-15.2-11.08-19.86-19.41-4.66-8.32-7-17.9-7-28.74s2.38-20.44,7.15-28.81c4.76-8.37,11.41-14.84,19.94-19.41,8.52-4.56,18.25-6.85,29.19-6.85,15.55,0,28.89,5.47,40.02,16.4l-15.2,15.2c-6.72-6.42-14.8-9.63-24.22-9.63-6.32,0-11.91,1.38-16.78,4.14-4.87,2.76-8.63,6.65-11.28,11.66-2.66,5.02-3.99,10.78-3.99,17.3s1.33,12.29,3.99,17.3c2.66,5.02,6.42,8.9,11.28,11.66,4.86,2.76,10.46,4.14,16.78,4.14,5.01,0,9.83-.9,14.44-2.71,4.61-1.81,8.63-4.41,12.04-7.82l14.45,16.1c-11.34,10.93-25.03,16.4-41.08,16.4-11.34,0-21.29-2.31-29.87-6.92Z"/>
  <path class="cls-1" d="M550.6,302.47c6.85-8.16,12.4-12.4,25.62-12.4h12.24c14.19,0,19.91,7.02,19.91,20.07v90.07h-19.42v-22.84h-51.56c-18.6,0-25.45-6.69-25.45-19.09,0-8.16,2.77-12.89,6.85-17.78l31.82-38.02ZM535.42,349.79c-1.31,1.47-1.96,2.94-1.96,5.06,0,3.43,2.12,5.38,7.34,5.38h48.13v-45.52c0-3.43-1.47-5.39-4.89-5.39h-8.65c-4.9,0-6.85,1.14-9.96,4.73l-30.02,35.73Z"/>
  <path class="cls-1" d="M710.08,312.28h-56.02v26.5h52.85v22.06h-52.85v39.84h-26.03v-111.1h82.05v22.7Z"/>
  <path class="cls-1" d="M728.97,289.59h26.03v111.1h-26.03v-111.1Z"/>
  <path class="cls-1" d="M839.43,344.03l38.25,56.66h-31.58l-12.86-19.36-10.95-17.93-10.63,17.78-12.86,19.52h-31.9l37.61-55.55-35.55-55.55h30.63l11.75,18.73,10.47,18.09,10.95-18.09,12.06-18.73h30.79l-36.19,54.44Z"/>
</svg>