<?xml version="1.0" encoding="UTF-8"?>
<svg id="Capa_1" data-name="Capa 1" xmlns="http://www.w3.org/2000/svg" viewBox="80 140 460 260">
  <defs>
    <style>
      .cls-1 {
        fill: #8fe3f0;
      }
    </style>
  </defs>
  <path class="cls-1" d="M158.34,381.12c-18.38-9.89-32.57-23.76-42.57-41.6-10-17.84-14.99-38.38-14.99-61.6s5.1-43.81,15.32-61.76c10.21-17.95,24.45-31.82,42.73-41.6,18.27-9.78,39.13-14.68,62.56-14.68,33.32,0,61.92,11.72,85.79,35.15l-32.58,32.57c-14.41-13.76-31.72-20.64-51.92-20.64-13.55,0-25.53,2.96-35.96,8.87-10.43,5.91-18.49,14.25-24.19,24.99-5.7,10.75-8.54,23.11-8.54,37.09s2.85,26.34,8.54,37.09c5.69,10.75,13.76,19.08,24.19,24.99,10.43,5.91,22.41,8.87,35.96,8.87,10.75,0,21.07-1.94,30.96-5.8,9.89-3.87,18.49-9.46,25.8-16.77l30.96,34.51c-24.3,23.44-53.65,35.15-88.05,35.15-24.3,0-45.63-4.95-64.02-14.83Z"/>
  <path class="cls-1" d="M393.3,186.46c14.69-17.49,26.58-26.58,54.91-26.58h26.23c30.43,0,42.67,15.04,42.67,43.02v193.06h-41.62v-48.96h-110.52c-39.87,0-54.56-14.34-54.56-40.92,0-17.49,5.95-27.63,14.69-38.12l68.2-81.49ZM360.77,287.88c-2.8,3.15-4.19,6.29-4.19,10.85,0,7.34,4.55,11.54,15.74,11.54h103.17v-97.58c0-7.34-3.14-11.54-10.49-11.54h-18.54c-10.49,0-14.69,2.45-21.34,10.14l-64.35,76.59Z"/>
</svg>
