<?xml version="1.0" encoding="UTF-8"?>
<svg id="Capa_1" data-name="Capa 1" xmlns="http://www.w3.org/2000/svg" viewBox="0 0 640 514.14">
  <defs>
    <style>
      .cls-1 {
        fill: #8fe3f0;
      }
    </style>
  </defs>
  <path class="cls-1" d="M393.07,164.73c14.87-17.7,26.91-26.91,55.58-26.91h26.55c30.8,0,43.19,15.22,43.19,43.55v195.43h-42.13v-49.56h-111.88c-40.36,0-55.23-14.52-55.23-41.42,0-17.71,6.02-27.97,14.87-38.59l69.04-82.5ZM360.14,267.4c-2.83,3.19-4.25,6.37-4.25,10.98,0,7.43,4.6,11.68,15.93,11.68h104.44v-98.78c0-7.43-3.18-11.69-10.62-11.69h-18.76c-10.62,0-14.87,2.48-21.6,10.27l-65.14,77.54Z"/>
  <path class="cls-1" d="M336.07,379.19h-73.45l-84.82-95.86v95.86h-56.21v-241.37h56.21v94.48l79.31-94.48h69.65l-101.72,118.27,111.03,123.1Z"/>
</svg>